<svg id="visual" viewBox="0 0 1600 900" width="1600" height="900" xmlns="http://www.w3.org/2000/svg" xmlns:xlink="http://www.w3.org/1999/xlink" version="1.1"><rect x="0" y="0" width="1600" height="900" fill="#001220"></rect><defs><linearGradient id="grad1_0" x1="43.8%" y1="0%" x2="100%" y2="100%"><stop offset="14.444444444444446%" stop-color="#001220" stop-opacity="1"></stop><stop offset="85.55555555555554%" stop-color="#001220" stop-opacity="1"></stop></linearGradient></defs><defs><linearGradient id="grad2_0" x1="0%" y1="0%" x2="56.3%" y2="100%"><stop offset="14.444444444444446%" stop-color="#001220" stop-opacity="1"></stop><stop offset="85.55555555555554%" stop-color="#001220" stop-opacity="1"></stop></linearGradient></defs><g transform="translate(1600, 0)"><path d="M0 810C-119.5 807.2 -239.1 804.3 -304.6 735.4C-370.2 666.5 -381.7 531.5 -458.9 458.9C-536.1 386.3 -678.9 376.1 -748.3 310C-817.8 243.9 -813.9 121.9 -810 0L0 0Z" fill="#215273"></path></g><g transform="translate(0, 900)"><path d="M0 -810C111.1 -791.2 222.1 -772.3 294.7 -711.4C367.2 -650.5 401.2 -547.4 480.8 -480.8C560.5 -414.2 685.9 -384 748.3 -310C810.8 -235.9 810.4 -118 810 0L0 0Z" fill="#215273"></path></g></svg>