<svg id="visual" viewBox="0 0 1600 900" width="1600" height="900" xmlns="http://www.w3.org/2000/svg" xmlns:xlink="http://www.w3.org/1999/xlink" version="1.1"><rect x="0" y="0" width="1600" height="900" fill="#001220"></rect><defs><linearGradient id="grad1_0" x1="43.8%" y1="0%" x2="100%" y2="100%"><stop offset="14.444444444444446%" stop-color="#001220" stop-opacity="1"></stop><stop offset="85.55555555555554%" stop-color="#001220" stop-opacity="1"></stop></linearGradient></defs><defs><linearGradient id="grad2_0" x1="0%" y1="0%" x2="56.3%" y2="100%"><stop offset="14.444444444444446%" stop-color="#001220" stop-opacity="1"></stop><stop offset="85.55555555555554%" stop-color="#001220" stop-opacity="1"></stop></linearGradient></defs><g transform="translate(1600, 0)"><path d="M0 810C-112.1 801.1 -224.1 792.3 -306.5 740C-388.9 687.8 -441.6 592.1 -518.3 518.3C-595 444.5 -695.7 392.7 -748.3 310C-801 227.2 -805.5 113.6 -810 0L0 0Z" fill="#215273"></path></g><g transform="translate(0, 900)"><path d="M0 -810C103.4 -798.1 206.7 -786.3 310 -748.3C413.2 -710.4 516.4 -646.3 555.1 -555.1C593.7 -463.8 567.9 -345.4 599.6 -248.4C631.3 -151.3 720.7 -75.7 810 0L0 0Z" fill="#215273"></path></g></svg>