<svg id="visual" viewBox="0 0 900 600" width="900" height="600" xmlns="http://www.w3.org/2000/svg" xmlns:xlink="http://www.w3.org/1999/xlink" version="1.1"><rect x="0" y="0" width="900" height="600" fill="#001220"></rect><defs><linearGradient id="grad1_0" x1="33.3%" y1="0%" x2="100%" y2="100%"><stop offset="20%" stop-color="#001220" stop-opacity="1"></stop><stop offset="80%" stop-color="#001220" stop-opacity="1"></stop></linearGradient></defs><defs><linearGradient id="grad2_0" x1="0%" y1="0%" x2="66.7%" y2="100%"><stop offset="20%" stop-color="#001220" stop-opacity="1"></stop><stop offset="80%" stop-color="#001220" stop-opacity="1"></stop></linearGradient></defs><g transform="translate(900, 0)"><path d="M0 486.7C-59.4 472.4 -118.7 458 -181.4 437.9C-244.1 417.8 -310 392.1 -344.2 344.2C-378.3 296.3 -380.7 226.4 -399.1 165.3C-417.6 104.3 -452.2 52.1 -486.7 0L0 0Z" fill="#FBAE3C"></path></g><g transform="translate(0, 600)"><path d="M0 -486.7C58.1 -451.8 116.3 -416.9 157.3 -379.7C198.3 -342.5 222.2 -303.1 275.1 -275.1C327.9 -247 409.6 -230.2 449.7 -186.3C489.8 -142.3 488.3 -71.2 486.7 0L0 0Z" fill="#FBAE3C"></path></g></svg>